<?xml version="1.0" standalone="no"?>
<!DOCTYPE svg PUBLIC "-//W3C//DTD SVG 20010904//EN"
 "http://www.w3.org/TR/2001/REC-SVG-20010904/DTD/svg10.dtd">
<svg version="1.0" xmlns="http://www.w3.org/2000/svg"
 width="792.000000pt" height="792.000000pt" viewBox="0 0 792.000000 792.000000"
 preserveAspectRatio="xMidYMid meet">
<metadata>
Created by potrace 1.14, written by Peter Selinger 2001-2017
</metadata>
<g transform="translate(0.000000,792.000000) scale(0.100000,-0.100000)"
fill="#000000" stroke="none">
<path d="M3695 5111 c-6 -12 4 -41 15 -41 19 0 70 -126 72 -175 2 -49 -20
-145 -33 -145 -4 0 -24 -35 -45 -77 -40 -80 -41 -82 -43 -108 -2 -26 -17 -16
-36 23 -38 78 -137 128 -231 117 -55 -6 -77 -19 -132 -72 -39 -38 -46 -41 -85
-37 -23 2 -109 6 -192 9 -155 5 -309 11 -550 20 -77 3 -201 7 -275 10 -138 5
-302 11 -540 20 -241 9 -453 17 -542 19 -48 1 -90 5 -93 7 -2 3 -20 3 -39 1
-32 -4 -35 -7 -32 -31 7 -49 25 -80 60 -103 20 -13 36 -29 36 -35 0 -7 5 -13
10 -13 6 0 10 -9 10 -20 0 -11 4 -20 8 -20 5 0 19 -9 31 -19 13 -11 27 -21 32
-23 6 -2 11 -11 13 -21 3 -26 42 -74 75 -93 17 -10 33 -30 36 -45 11 -49 95
-113 155 -117 3 0 23 -7 45 -16 34 -13 360 -118 375 -121 3 0 39 -12 80 -25
41 -13 77 -25 80 -25 9 -2 364 -116 380 -122 8 -3 20 -7 25 -8 6 0 17 -4 25
-7 8 -4 40 -14 70 -23 30 -9 62 -19 70 -22 16 -7 33 -11 53 -16 6 -1 17 -6 23
-9 6 -4 21 -9 35 -12 25 -5 137 -40 180 -57 23 -9 25 -14 19 -52 -9 -70 24
-144 92 -205 39 -35 103 -72 125 -72 7 0 25 -24 39 -52 15 -29 28 -54 29 -56
2 -2 28 4 58 14 l55 17 25 -29 25 -29 -34 -47 -34 -48 50 -50 c27 -27 53 -50
56 -50 4 0 26 15 48 34 38 31 43 33 61 19 11 -8 26 -18 34 -22 11 -7 11 -17
-2 -61 -9 -30 -14 -57 -11 -62 5 -8 109 -58 122 -58 4 0 21 20 37 45 31 46 33
46 91 24 19 -7 21 -14 18 -58 -1 -28 2 -53 7 -57 13 -8 65 -16 109 -18 34 -1
35 1 49 50 l13 52 43 -1 c43 -1 43 -1 58 -51 l14 -51 44 2 c24 1 59 5 76 8 32
6 33 7 29 55 -3 59 1 68 42 79 30 9 34 7 59 -27 15 -20 30 -41 34 -45 9 -12
138 51 135 66 -1 7 -4 17 -8 22 -3 6 -9 26 -12 45 -6 32 -4 37 26 56 l33 21
43 -35 43 -35 50 49 c45 44 61 77 41 86 -4 2 -17 16 -29 32 l-22 28 25 33 c27
35 30 36 92 8 18 -8 36 -12 40 -9 4 2 18 27 32 55 14 28 32 51 40 51 8 0 34 9
57 20 109 49 176 141 178 244 l1 60 70 22 c38 12 164 52 279 89 116 37 253 80
305 97 52 17 127 40 165 53 209 67 278 90 469 150 277 88 289 94 321 160 15
30 36 57 51 63 26 13 64 67 64 94 0 9 8 19 18 23 28 9 71 52 77 77 4 13 21 32
38 43 34 22 63 66 71 107 5 30 -4 35 -54 32 -19 -1 -100 -5 -180 -8 -132 -6
-220 -9 -560 -21 -63 -2 -180 -7 -260 -10 -80 -3 -203 -7 -275 -10 -71 -2
-197 -7 -280 -10 -195 -7 -400 -15 -550 -20 -66 -2 -121 -5 -122 -6 -14 -9
-34 1 -68 36 -22 22 -51 47 -65 54 -37 22 -152 23 -192 3 -45 -22 -93 -68
-111 -105 l-16 -31 -6 29 c-54 254 -208 433 -437 509 -59 20 -116 28 -123 17z
m-30 -851 c8 -16 15 -31 15 -35 0 -3 -20 -5 -45 -5 -25 0 -45 3 -45 6 0 11 41
64 50 64 5 0 16 -13 25 -30z m635 -2 c22 -29 15 -41 -23 -38 -66 6 -64 8 -92
-115 -15 -63 -30 -115 -34 -115 -5 0 -16 17 -25 38 l-18 39 40 56 c22 32 49
81 61 110 18 45 26 54 46 53 13 -1 33 -14 45 -28z m-536 -234 c-28 -54 -44
-74 -45 -58 -4 50 -4 64 2 64 4 0 4 12 0 26 -4 15 -5 41 -3 59 l4 33 34 -38
34 -37 -26 -49z m-268 -54 c1 -147 0 -151 -20 -148 -45 6 -73 132 -45 205 11
31 51 93 59 93 3 0 6 -68 6 -150z"/>
</g>
</svg>
