<?xml version="1.0" encoding="UTF-8" standalone="no"?>
<!-- Generator: Adobe Illustrator 19.0.0, SVG Export Plug-In . SVG Version: 6.00 Build 0)  -->

<svg
   version="1.1"
   id="Layer_1"
   x="0px"
   y="0px"
   viewBox="0 0 612 235"
   xml:space="preserve"
   sodipodi:docname="ita-logo.svg"
   inkscape:version="1.2.2 (b0a8486541, 2022-12-01)"
   width="612"
   height="235"
   xmlns:inkscape="http://www.inkscape.org/namespaces/inkscape"
   xmlns:sodipodi="http://sodipodi.sourceforge.net/DTD/sodipodi-0.dtd"
   xmlns="http://www.w3.org/2000/svg"
   xmlns:svg="http://www.w3.org/2000/svg"><defs
   id="defs55" /><sodipodi:namedview
   id="namedview53"
   pagecolor="#ffffff"
   bordercolor="#666666"
   borderopacity="1.0"
   inkscape:showpageshadow="2"
   inkscape:pageopacity="0.0"
   inkscape:pagecheckerboard="0"
   inkscape:deskcolor="#d1d1d1"
   showgrid="false"
   inkscape:zoom="1.2967172"
   inkscape:cx="306.15774"
   inkscape:cy="396"
   inkscape:window-width="2560"
   inkscape:window-height="1371"
   inkscape:window-x="2560"
   inkscape:window-y="32"
   inkscape:window-maximized="1"
   inkscape:current-layer="Layer_1" />
<style
   type="text/css"
   id="style2">
	.st0{fill:#ED1C24;}
	.st1{fill:#FFCB05;}
	.st2{fill:#FFFFFF;}
	.st3{fill:#034EA2;}
</style>
<g
   id="g50"
   transform="translate(0,-280.15238)">
	<path
   class="st0"
   d="m 290.9,384.5 c -9.4,-8.5 -15.5,-20.7 -15.9,-34.3 -0.4,-12.1 3.6,-23.3 10.6,-32.1 2.7,-3.4 4.6,-10.1 4.4,-15.9 -0.3,-7.7 -3.7,-14.6 -9,-19.4 -0.9,-0.9 -0.7,-1.7 1,-1.5 30.1,4.7 53.1,30.7 53.1,62.1 0,16 -6,30.6 -15.9,41.7 -11.6,12.9 -27.9,-0.3 -28.3,-0.6 z"
   id="path4" />
	<path
   d="m 286.6,283.5 c 11.9,8.5 16.1,25.8 4.1,46.7 -10,17.5 -5.4,30.8 6.1,44.4 1.3,1.5 3.4,3.7 5.4,6.1 -9.7,-25.2 -9.7,-35 -2.8,-50.6 10.3,-23.4 0.2,-39.6 -10.7,-45.9 -0.7,-0.3 -1.4,-0.5 -2.1,-0.7 z m 20.8,103.3 c 27.2,-41.8 12.2,-81.3 2.9,-91.4 l 0.2,-0.2 c -1.2,-1 -2.5,-1.9 -3.8,-2.8 9.1,13.1 12.7,34.5 0.4,63 l -2.3,-1 c 13.9,-32.2 6.8,-54.6 -4.6,-65.8 -1.3,-0.7 -2.6,-1.4 -4,-1.9 8.9,8.7 14.3,24.2 5.4,44.3 -7,16.1 -6.6,25.3 5.8,55.8 z m 10.1,-85 c 8.8,17.2 15.4,52.4 -9.6,88.7 l -1,-0.7 h -2 c 0,-3.2 -7.6,-10.8 -10,-13.6 -12.2,-14.4 -16.9,-28.8 -6.4,-47.2 11.6,-20.2 7.1,-36.1 -3.8,-43.6 5.2,7 10.3,20.4 1.8,33.5 -6,9.3 -10.8,19.6 -10.4,31.3 0.5,13.3 6.4,25.2 15.5,33.5 l -1.7,1.9 c -9.6,-8.7 -15.9,-21.2 -16.3,-35.2 -0.4,-12.5 4.7,-23.3 10.8,-32.8 9.3,-14.3 0.6,-29.1 -4.4,-33.8 -1.8,-1.8 -0.7,-4 2,-3.6 30.7,4.8 54.2,31.3 54.2,63.3 0,16.3 -6.1,31.2 -16.2,42.6 l -1.9,-1.7 c 9.7,-10.9 15.5,-25.2 15.5,-40.9 0.1,-16.2 -6,-30.8 -16.1,-41.7 z"
   id="path6" />
	<path
   class="st1"
   d="m 391.4,455.4 -6.2,11.3 -10.4,-4.2 c -1.9,2.9 -4,5.7 -6.3,8.3 l 6.8,9 -9.3,9 -8.7,-7.1 c -2.7,2.1 -5.4,4.1 -8.3,5.9 l 3.7,10.7 -11.6,5.7 -6.1,-9.4 c -3.2,1.2 -6.4,2.3 -9.7,3.1 l 0.2,11.4 -12.8,1.8 -2.9,-10.8 c -1.8,0.1 -3.6,0.2 -5.5,0.2 -1.7,0 -3.3,0 -4.9,-0.1 l -3.1,11 -12.7,-2 0.4,-11.3 c -3.4,-0.8 -6.7,-1.9 -9.9,-3.1 l -6.1,9.5 -11.6,-5.6 3.7,-10.8 c -2.9,-1.8 -5.7,-3.7 -8.3,-5.9 l -8.8,7 -9.3,-9 6.8,-9 c -2.2,-2.6 -4.3,-5.3 -6.2,-8.1 l -10.7,4.1 -6.1,-11.4 16.8,-23.7 139.5,-0.2 z"
   id="path8" />
	<path
   class="st1"
   d="m 335.6,346.5 c 0,-3.3 0.3,-5.3 0.8,-6.5 2.6,-10.2 11.3,-17.6 21.5,-17.6 8.3,0 15.5,4.9 19.4,12.1 2.1,-0.6 4.4,-0.9 6.7,-1 l 224.3,-8.2 c 0,6.3 -4.5,11.9 -10.4,13.2 h 0.6 c -0.9,5.8 -5.6,10 -11.6,11.4 l -1.2,0.2 c 1.6,-0.2 2.4,-0.3 2.4,-0.3 -0.2,6.3 -4.9,10.7 -11,12.5 0.2,0 0.3,0 0.3,0 -0.1,5.9 -4.3,10.8 -10.1,13 L 414.5,424 c 0.6,2.1 1,4.2 1,6.5 0,14.9 -15,26.9 -33.4,26.9 -10.7,0 -20.3,-4.1 -26.4,-10.4 -6.1,-5.9 -12.8,-7.7 -20.1,-5.5 v -32.4 -0.7 c 0.6,-0.2 1.7,0 3.5,0.9 2.7,1.3 5.7,2.1 8.9,2.3 2.6,0.1 5.1,-0.2 7.5,-0.8 2.8,-3.3 4.5,-8 4.5,-13.3 0,-14.8 -7,-16.8 -14.2,-25.5 -7.4,-9 -10.1,-14.4 -10.2,-25.2 z"
   id="path10" />
	<path
   d="m 358.7,408.2 c 7,-3.4 12.1,-10.4 12.5,-18.7 0.8,-14.6 -13.4,-19.1 -12.6,-34.3 0.6,-10.5 7.6,-18.4 17,-21.5 -3.8,-6.1 -10.3,-10.1 -17.5,-10.1 -10.1,0 -17.9,7.5 -20.4,16.8 -0.7,1.6 -0.8,4.6 -0.8,6.1 v 0.3 c 0.1,13.7 6,21 15,29.9 6.6,6.5 9.3,10.8 9.3,20.8 0,4 -0.9,7.7 -2.5,10.7 z m -10.8,4.7 c -4.8,-0.3 -6.8,-1.8 -11,-3.1 v 1.9 c 0.5,0.6 1,1.4 1.6,1.9 15.2,13.5 41,6 44.5,-15.8 0.7,-5.3 0.3,-9.2 -0.5,-14.3 -0.2,-1.2 -0.3,-2.3 -0.3,-3.5 0,-9.9 6.5,-17.1 16.3,-18.4 l 198.1,-24.2 c 5.5,-0.6 9.9,-5.3 10.5,-10.9 l -223,8.2 c -12.3,0.4 -22.5,8.7 -23.1,20.7 -0.7,14 13.4,18.7 12.6,34.3 -0.6,13.5 -12.2,23.9 -25.7,23.2 z m 67.8,9.4 151.4,-48.3 c 4.9,-1.8 8.4,-5.6 9.1,-10.2 l -160.6,40.8 c 1,2.8 1.6,5.7 1.6,8.9 0,3 -0.5,6 -1.5,8.8 z M 578.9,363 c -0.5,6.2 -5,11.1 -10.9,13.3 l -152,48.5 c 0.5,1.8 0.7,3.7 0.7,5.6 0,15.8 -15.8,28.2 -34.7,28.2 -11,0 -20.9,-4.2 -27.3,-10.8 -6.3,-6.1 -12.2,-7.2 -20.5,-4.7 v -30.7 -5 c 2.1,-0.7 3.2,-0.3 5.3,0.7 2.5,1.2 5.4,2 8.4,2.1 2.3,0.1 4.6,-0.1 6.7,-0.7 2.4,-3 4,-7.4 4,-12.2 0,-14.2 -6.4,-15.7 -13.9,-24.7 -7.6,-9.2 -10.4,-14.9 -10.4,-26 v -0.3 c 0,-3.2 0.3,-5.5 0.9,-7 2.8,-10.6 11.9,-18.5 22.7,-18.5 8.5,0 15.9,4.8 20,11.9 1.9,-0.5 4,-0.8 6,-0.8 l 225.6,-8.3 v 1.3 c 0,6.4 -4.1,12.1 -9.9,14.1 -1.1,5.3 -5.1,9.3 -10.3,11.2 -0.2,6.4 -4.7,10.8 -10.4,12.8 z M 411,401 c -0.1,20.1 -20.2,36.8 -44.5,37.8 -5.6,0.2 -10.9,-0.4 -15.8,-1.7 7.7,5.4 15.8,8.5 27,7.8 16.2,-1 29.8,-10 34.8,-21.6 l 0.2,-0.4 -0.1,-0.3 0.3,-0.1 c 1.2,-2.9 1.8,-5.9 1.8,-9 0,-4.6 -1.3,-8.8 -3.7,-12.5 z m -4.5,-15.8 c 2.1,3.4 3.6,7.2 4.2,11.2 1.6,1.8 2.9,3.8 4,5.9 l 161.6,-41.1 c 5.7,-1.4 9.9,-5 10.8,-10.1 z m -11.1,-20.4 c 2.5,4.1 4.4,8.6 5.5,13.4 1.5,1.4 2.9,3 4.1,4.6 l 181.9,-34.3 c 5,-1.2 8.9,-4.4 10.2,-8.7 L 398.8,364 c -1.2,0.2 -2.3,0.5 -3.4,0.8 z m -51.6,59.4 c 7.4,3.5 10.9,4.4 15.4,4.4 22.2,0 40.2,-18.3 40.2,-40.8 0,-8.1 -2.3,-15.6 -6.3,-22 -5.2,2.6 -8.3,7.7 -8.3,14.2 0,2.3 0.6,4.6 0.9,6.9 0.4,2.8 0.6,6.4 -0.1,11.3 -3.8,23.8 -32.1,32.2 -48.6,17.4 V 440 c 7.2,-1.6 13.8,0.5 19.7,6.2 5.9,6.1 15.1,10 25.5,10 18,0 32.1,-11.7 32.1,-25.7 0,-1.3 -0.1,-2.6 -0.4,-3.9 -6.2,11.5 -20.1,19.9 -35.9,20.8 -15.1,0.9 -24.9,-4.7 -34.8,-13.1 -1,-0.5 -2,-1 -2.9,-1.5 l 1.2,-2.2 c 7,3.9 15.6,6 25,5.6 23.5,-0.9 42,-17 42,-35.4 0,-6.8 -2.5,-13.1 -6.9,-18.2 0.2,1.7 0.3,3.4 0.3,5.1 0,23.9 -19.1,43.3 -42.7,43.3 -5,0 -8.9,-1 -16.5,-4.6 z"
   id="path12" />
	<path
   class="st1"
   d="m 275.1,346.5 c 0,-3.3 -0.3,-5.3 -0.8,-6.5 -2.6,-10.2 -11.3,-17.6 -21.5,-17.6 -8.3,0 -15.5,4.9 -19.4,12.1 -2.1,-0.6 -4.4,-0.9 -6.7,-1 L 2.3,325.2 c 0,6.3 4.5,11.9 10.4,13.2 h -0.6 c 0.9,5.8 5.6,10 11.6,11.4 l 1.2,0.2 c -1.6,-0.2 -2.4,-0.3 -2.4,-0.3 0.2,6.3 4.9,10.7 11,12.5 -0.2,0 -0.3,0 -0.3,0 0.1,5.9 4.3,10.8 10.1,13 L 196.2,424 c -0.6,2.1 -1,4.2 -1,6.5 0,14.9 15,26.9 33.4,26.9 10.7,0 20.3,-4.1 26.4,-10.4 6.1,-5.9 12.8,-7.7 20.1,-5.5 v -32.4 -0.7 c -0.6,-0.2 -1.7,0 -3.5,0.9 -2.7,1.3 -5.7,2.1 -8.9,2.3 -2.6,0.1 -5.1,-0.2 -7.5,-0.8 -2.8,-3.3 -4.5,-8 -4.5,-13.3 0,-14.8 7,-16.8 14.2,-25.5 7.4,-9 10.1,-14.4 10.2,-25.2 z"
   id="path14" />
	<path
   d="m 262.8,412.9 c -13.5,0.7 -25.1,-9.7 -25.8,-23.2 -0.8,-15.6 13.4,-20.3 12.6,-34.3 -0.6,-12 -10.8,-20.3 -23.1,-20.7 l -223,-8.2 c 0.6,5.6 5,10.3 10.5,10.9 l 198.1,24.2 c 9.8,1.3 16.3,8.5 16.3,18.4 0,2.4 -0.6,4.8 -0.9,7.2 -0.4,2.6 -0.6,5.9 0.1,10.6 3.5,21.8 29.3,29.4 44.5,15.8 0,0 0.2,-0.1 0.4,-0.4 0.3,-0.3 0.7,-0.8 1.2,-1.5 v -1.9 c -4,1.3 -6.1,2.8 -10.9,3.1 z m -27.6,-79.2 c 9.4,3.2 16.5,11 17,21.5 0.8,15.1 -13.4,19.7 -12.6,34.3 0.4,8.3 5.5,15.4 12.5,18.7 -1.6,-3.1 -2.6,-6.8 -2.6,-10.7 0,-15.3 6.6,-16.8 14.5,-26.3 7.3,-8.8 9.8,-14 9.9,-24.4 v -0.3 c 0,-1.5 0,-4.5 -0.8,-6.1 -2.4,-9.3 -10.3,-16.8 -20.4,-16.8 -7.3,0 -13.7,4 -17.5,10.1 z M 194.7,424.8 42.8,376.4 C 36.9,374.2 32.4,369.3 31.9,363.1 26.2,361.1 21.7,356.7 21.2,350.5 16.1,348.6 12,344.6 10.9,339.3 5.1,337.3 1,331.6 1,325.2 v -1.3 l 225.6,8.3 c 2.1,0.1 4.1,0.4 6,0.8 4.2,-7.1 11.6,-11.9 20,-11.9 10.9,0 19.9,7.9 22.7,18.5 0.6,1.5 0.9,3.7 0.9,7 v 0.3 c -0.1,14.4 -6.2,22.3 -15.8,31.7 -6.1,6 -8.6,9.7 -8.6,19.1 0,4.8 1.5,9.1 4,12.2 2.1,0.6 4.4,0.8 6.7,0.7 3,-0.2 5.8,-0.9 8.4,-2.1 2.1,-1 3.1,-1.4 5.3,-0.7 v 5 30.7 c -8.2,-2.5 -14.1,-1.5 -20.5,4.7 -6.4,6.6 -16.2,10.8 -27.3,10.8 -18.9,0 -34.7,-12.4 -34.7,-28.2 0.3,-2.2 0.5,-4.1 1,-6 z m -160.2,-61 c 0.7,4.6 4.2,8.4 9.1,10.2 L 195,422.3 c -1,-2.8 -1.5,-5.8 -1.5,-8.8 0,-3.1 0.6,-6.1 1.6,-8.9 z m 165.6,32.6 c 0.6,-4 2.1,-7.8 4.2,-11.2 l -180.4,-34 c 0.8,5.1 5.1,8.7 10.8,10.1 l 161.6,41.1 c 0.8,-2.2 2.2,-4.2 3.8,-6 z m 59.9,40.7 c -4.9,1.3 -10.3,1.9 -15.8,1.7 -24.3,-1 -44.4,-17.7 -44.5,-37.8 -2.4,3.7 -3.7,7.9 -3.7,12.5 0,3.1 0.6,6.1 1.8,9 l 0.3,0.1 -0.1,0.3 0.2,0.4 c 5.1,11.6 18.6,20.6 34.9,21.6 11.1,0.7 19.2,-2.4 26.9,-7.8 z m -50.1,-58.8 c 1.1,-4.8 2.9,-9.4 5.5,-13.4 -1.1,-0.4 -2.2,-0.6 -3.4,-0.8 L 13.8,339.9 c 1.2,4.3 5.1,7.5 10.1,8.7 l 181.9,34.3 c 1.2,-1.6 2.6,-3.2 4.1,-4.6 z m 58.1,48.2 c -7.6,3.6 -11.4,4.6 -16.5,4.6 -23.6,0 -42.7,-19.4 -42.7,-43.3 0,-1.7 0.1,-3.4 0.3,-5.1 -4.4,5.1 -6.9,11.4 -6.9,18.2 0,18.4 18.6,34.5 42,35.4 9.4,0.4 18.1,-1.8 25,-5.6 l 1.2,2.2 c -0.9,0.5 -1.9,1 -2.9,1.5 -9.9,8.4 -19.7,14 -34.8,13.1 -15.9,-1 -29.8,-9.4 -35.9,-20.8 -0.3,1.3 -0.4,2.6 -0.4,3.9 0,13.9 14.1,25.7 32.1,25.7 10.4,0 19.6,-4 25.5,-10 5.9,-5.7 12.5,-7.9 19.7,-6.2 v -24.4 c -16.6,14.8 -44.9,6.5 -48.6,-17.4 -0.8,-5.5 -0.3,-9.7 0.5,-15.1 0.2,-1.1 0.3,-2.1 0.3,-3.1 0,-6.5 -3.1,-11.6 -8.3,-14.2 -4,6.3 -6.3,13.9 -6.3,22 0,22.6 18,40.8 40.2,40.8 4.5,0 8,-0.8 15.4,-4.4 z"
   id="path16" />
	<path
   d="m 384.6,465.1 4.6,-8.3 3.2,-0.9 -6.7,12.3 -10.5,-4.3 c -1.6,2.3 -3.3,4.6 -5.1,6.8 l 6.8,9.1 -10.9,10.5 -8.8,-7.1 c -2.2,1.7 -4.5,3.3 -6.8,4.8 l 3.7,10.8 -13.6,6.6 -6.1,-9.4 c -2.6,1 -5.2,1.8 -7.9,2.5 l 0.2,11.5 -15,2.1 -2.9,-10.9 c -1.5,0.1 -3,0.1 -4.5,0.1 -1.3,0 -2.7,0 -4,-0.1 l -3.2,11.1 -14.9,-2.4 0.4,-11.4 c -2.8,-0.7 -5.4,-1.6 -8.1,-2.5 l -6.2,9.6 -13.6,-6.6 3.8,-10.9 c -2.3,-1.5 -4.6,-3.1 -6.8,-4.8 l -8.9,7.2 -10.9,-10.5 6.9,-9.1 c -1.8,-2.1 -3.5,-4.3 -5.1,-6.6 l -10.8,4.2 -6.6,-12.4 h 2.7 l 5,9.2 10.6,-4.1 c 2.3,3.4 4.7,6.5 7.3,9.6 l -6.8,8.9 7.7,7.4 8.7,-7.1 c 3.2,2.5 6.4,4.8 9.9,6.9 l -3.7,10.7 9.6,4.7 6.1,-9.4 c 3.8,1.5 7.7,2.7 11.7,3.7 l -0.4,11.2 10.5,1.7 3.1,-10.9 c 1.9,0.1 3.9,0.2 5.8,0.2 2.1,0 4.3,-0.1 6.4,-0.2 l 2.8,10.7 10.6,-1.5 -0.2,-11.3 c 3.9,-1 7.7,-2.2 11.5,-3.7 l 6,9.3 9.6,-4.7 -3.7,-10.6 c 3.5,-2.1 6.7,-4.4 9.8,-7 l 8.6,7 7.7,-7.4 -6.7,-8.9 c 2.7,-3.1 5.1,-6.3 7.4,-9.8 z"
   id="path18" />
	<path
   d="m 338.8,472.1 c -10,6.1 -21.8,9.7 -34.4,9.7 -12.6,0 -24.4,-3.5 -34.4,-9.7 l 1.3,-2.1 c 9.6,5.9 21,9.3 33.1,9.3 12.1,0 23.4,-3.4 33.1,-9.3 z"
   id="path20" />
	<path
   d="m 243.1,465.8 c -2.4,-3 -4.6,-6.1 -6.6,-9.4 l 1.9,-1.1 c 1.9,3.2 4.1,6.3 6.4,9.2 z"
   id="path22" />
	<path
   d="m 353.4,471.8 c -13.1,11.5 -30.2,18.4 -49,18.4 -18.7,0 -35.9,-6.9 -49,-18.4 l 1.7,-1.9 c 12.6,11 29.2,17.7 47.3,17.7 18.1,0 34.7,-6.7 47.3,-17.8 z"
   id="path24" />
	<path
   d="m 245.6,461.1 c -1.4,-1.8 -2.7,-3.7 -4,-5.7 l 1.8,-1.2 c 1.2,1.9 2.5,3.7 3.8,5.5 z"
   id="path26" />
	<path
   d="m 360.5,471.7 c -14.3,14.4 -34.2,23.3 -56.1,23.3 -21.8,0 -41.6,-8.8 -55.9,-23.1 l 1.8,-1.8 c 13.9,13.8 33,22.4 54.2,22.4 21.2,0 40.4,-8.6 54.3,-22.5 z"
   id="path28" />
	<polygon
   points="304.6,358 370.5,472.2 238.7,472.2 "
   id="polygon30" />
	<polygon
   class="st2"
   points="359.9,458.7 366.1,469.6 243.1,469.6 304.6,363.1 350.1,441.8 359.9,441.8 "
   id="polygon32" />
	<polygon
   class="st3"
   points="332.2,371.1 357.4,371.1 379.1,462.4 359.3,462.4 354.8,443.7 334.7,443.7 330.3,462.4 310.4,462.4 "
   id="polygon34" />
	<polygon
   class="st1"
   points="350.6,425.9 344.8,401.5 339,425.9 "
   id="polygon36" />
	<path
   d="m 349,424.7 -4.2,-17.7 -4.2,17.7 z m 3.2,2.5 h -14.8 l 7.4,-31 z"
   id="path38" />
	<path
   d="m 308.9,463.7 22.4,-93.9 h 27.1 l 22.4,93.9 H 358.4 L 353.9,445 h -18.1 l -4.5,18.7 z m 3.1,-2.5 h 17.3 l 4.5,-18.7 h 22.1 l 4.5,18.7 h 17.3 l -21.2,-88.8 h -23.2 z"
   id="path40" />
	<polygon
   class="st3"
   points="348.4,344.5 348.4,362.3 314.5,362.3 314.5,426 294.7,426 294.7,362.3 260.8,362.3 260.8,344.5 "
   id="polygon42" />
	<path
   d="m 259.6,343.2 h 90.1 v 20.3 h -33.9 v 63.8 h -22.3 v -63.8 h -33.9 z m 2.5,2.5 V 361 H 296 v 63.8 h 17.2 V 361 h 33.9 v -15.3 z"
   id="path44" />
	<polygon
   class="st3"
   points="280.7,462.3 280.7,371.2 261,371.2 261,462.3 "
   id="polygon46" />
	<path
   d="m 262.2,461.1 h 17.2 v -88.6 h -17.2 z m -2.5,2.5 V 370 h 22.2 v 93.6 z"
   id="path48" />
</g>
</svg>
