<?xml version="1.0" encoding="utf-8"?>
<!-- Generator: Adobe Illustrator 19.0.0, SVG Export Plug-In . SVG Version: 6.00 Build 0)  -->
<svg version="1.1" id="Layer_1" xmlns="http://www.w3.org/2000/svg" xmlns:xlink="http://www.w3.org/1999/xlink" x="0px" y="0px"
	 viewBox="0 0 612 792" style="enable-background:new 0 0 612 792;" xml:space="preserve">
<style type="text/css">
	.st0{fill:#ED1C24;}
	.st1{fill:#FFCB05;}
	.st2{fill:#FFFFFF;}
	.st3{fill:#034EA2;}
</style>
<g>
	<path class="st0" d="M290.9,384.5c-9.4-8.5-15.5-20.7-15.9-34.3c-0.4-12.1,3.6-23.3,10.6-32.1c2.7-3.4,4.6-10.1,4.4-15.9
		c-0.3-7.7-3.7-14.6-9-19.4c-0.9-0.9-0.7-1.7,1-1.5c30.1,4.7,53.1,30.7,53.1,62.1c0,16-6,30.6-15.9,41.7
		C307.6,398,291.3,384.8,290.9,384.5L290.9,384.5z"/>
	<path d="M286.6,283.5c11.9,8.5,16.1,25.8,4.1,46.7c-10,17.5-5.4,30.8,6.1,44.4c1.3,1.5,3.4,3.7,5.4,6.1c-9.7-25.2-9.7-35-2.8-50.6
		c10.3-23.4,0.2-39.6-10.7-45.9C288,283.9,287.3,283.7,286.6,283.5L286.6,283.5z M307.4,386.8c27.2-41.8,12.2-81.3,2.9-91.4l0.2-0.2
		c-1.2-1-2.5-1.9-3.8-2.8c9.1,13.1,12.7,34.5,0.4,63l-2.3-1c13.9-32.2,6.8-54.6-4.6-65.8c-1.3-0.7-2.6-1.4-4-1.9
		c8.9,8.7,14.3,24.2,5.4,44.3C294.6,347.1,295,356.3,307.4,386.8L307.4,386.8z M317.5,301.8c8.8,17.2,15.4,52.4-9.6,88.7l-1-0.7h-2
		c0-3.2-7.6-10.8-10-13.6c-12.2-14.4-16.9-28.8-6.4-47.2c11.6-20.2,7.1-36.1-3.8-43.6c5.2,7,10.3,20.4,1.8,33.5
		c-6,9.3-10.8,19.6-10.4,31.3c0.5,13.3,6.4,25.2,15.5,33.5l-1.7,1.9c-9.6-8.7-15.9-21.2-16.3-35.2c-0.4-12.5,4.7-23.3,10.8-32.8
		c9.3-14.3,0.6-29.1-4.4-33.8c-1.8-1.8-0.7-4,2-3.6c30.7,4.8,54.2,31.3,54.2,63.3c0,16.3-6.1,31.2-16.2,42.6l-1.9-1.7
		c9.7-10.9,15.5-25.2,15.5-40.9C333.7,327.3,327.6,312.7,317.5,301.8L317.5,301.8z"/>
	<path class="st1" d="M391.4,455.4l-6.2,11.3l-10.4-4.2c-1.9,2.9-4,5.7-6.3,8.3l6.8,9l-9.3,9l-8.7-7.1c-2.7,2.1-5.4,4.1-8.3,5.9
		l3.7,10.7l-11.6,5.7l-6.1-9.4c-3.2,1.2-6.4,2.3-9.7,3.1l0.2,11.4l-12.8,1.8l-2.9-10.8c-1.8,0.1-3.6,0.2-5.5,0.2
		c-1.7,0-3.3,0-4.9-0.1l-3.1,11l-12.7-2l0.4-11.3c-3.4-0.8-6.7-1.9-9.9-3.1l-6.1,9.5l-11.6-5.6l3.7-10.8c-2.9-1.8-5.7-3.7-8.3-5.9
		L243,489l-9.3-9l6.8-9c-2.2-2.6-4.3-5.3-6.2-8.1l-10.7,4.1l-6.1-11.4l16.8-23.7l139.5-0.2L391.4,455.4L391.4,455.4z"/>
	<path class="st1" d="M335.6,346.5c0-3.3,0.3-5.3,0.8-6.5c2.6-10.2,11.3-17.6,21.5-17.6c8.3,0,15.5,4.9,19.4,12.1
		c2.1-0.6,4.4-0.9,6.7-1l224.3-8.2c0,6.3-4.5,11.9-10.4,13.2l0.6,0c-0.9,5.8-5.6,10-11.6,11.4l-1.2,0.2c1.6-0.2,2.4-0.3,2.4-0.3
		c-0.2,6.3-4.9,10.7-11,12.5c0.2,0,0.3,0,0.3,0c-0.1,5.9-4.3,10.8-10.1,13L414.5,424c0.6,2.1,1,4.2,1,6.5c0,14.9-15,26.9-33.4,26.9
		c-10.7,0-20.3-4.1-26.4-10.4c-6.1-5.9-12.8-7.7-20.1-5.5v-32.4l0-0.7c0.6-0.2,1.7,0,3.5,0.9c2.7,1.3,5.7,2.1,8.9,2.3
		c2.6,0.1,5.1-0.2,7.5-0.8c2.8-3.3,4.5-8,4.5-13.3c0-14.8-7-16.8-14.2-25.5c-7.4-9-10.1-14.4-10.2-25.2L335.6,346.5L335.6,346.5z"/>
	<path d="M358.7,408.2c7-3.4,12.1-10.4,12.5-18.7c0.8-14.6-13.4-19.1-12.6-34.3c0.6-10.5,7.6-18.4,17-21.5
		c-3.8-6.1-10.3-10.1-17.5-10.1c-10.1,0-17.9,7.5-20.4,16.8c-0.7,1.6-0.8,4.6-0.8,6.1l0,0.3c0.1,13.7,6,21,15,29.9
		c6.6,6.5,9.3,10.8,9.3,20.8C361.2,401.5,360.3,405.2,358.7,408.2L358.7,408.2z M347.9,412.9c-4.8-0.3-6.8-1.8-11-3.1l0,1.9
		c0.5,0.6,1,1.4,1.6,1.9c15.2,13.5,41,6,44.5-15.8c0.7-5.3,0.3-9.2-0.5-14.3c-0.2-1.2-0.3-2.3-0.3-3.5c0-9.9,6.5-17.1,16.3-18.4
		l198.1-24.2c5.5-0.6,9.9-5.3,10.5-10.9l-223,8.2c-12.3,0.4-22.5,8.7-23.1,20.7c-0.7,14,13.4,18.7,12.6,34.3
		C373,403.2,361.4,413.6,347.9,412.9L347.9,412.9z M415.7,422.3L567.1,374c4.9-1.8,8.4-5.6,9.1-10.2l-160.6,40.8
		c1,2.8,1.6,5.7,1.6,8.9C417.2,416.5,416.7,419.5,415.7,422.3L415.7,422.3z M578.9,363c-0.5,6.2-5,11.1-10.9,13.3L416,424.8
		c0.5,1.8,0.7,3.7,0.7,5.6c0,15.8-15.8,28.2-34.7,28.2c-11,0-20.9-4.2-27.3-10.8c-6.3-6.1-12.2-7.2-20.5-4.7l0-30.7l0-5
		c2.1-0.7,3.2-0.3,5.3,0.7c2.5,1.2,5.4,2,8.4,2.1c2.3,0.1,4.6-0.1,6.7-0.7c2.4-3,4-7.4,4-12.2c0-14.2-6.4-15.7-13.9-24.7
		c-7.6-9.2-10.4-14.9-10.4-26l0-0.3c0-3.2,0.3-5.5,0.9-7c2.8-10.6,11.9-18.5,22.7-18.5c8.5,0,15.9,4.8,20,11.9c1.9-0.5,4-0.8,6-0.8
		l225.6-8.3v1.3c0,6.4-4.1,12.1-9.9,14.1c-1.1,5.3-5.1,9.3-10.3,11.2C589.1,356.6,584.6,361,578.9,363L578.9,363z M411,401
		c-0.1,20.1-20.2,36.8-44.5,37.8c-5.6,0.2-10.9-0.4-15.8-1.7c7.7,5.4,15.8,8.5,27,7.8c16.2-1,29.8-10,34.8-21.6l0.2-0.4l-0.1-0.3
		l0.3-0.1c1.2-2.9,1.8-5.9,1.8-9C414.7,408.9,413.4,404.7,411,401L411,401z M406.5,385.2c2.1,3.4,3.6,7.2,4.2,11.2
		c1.6,1.8,2.9,3.8,4,5.9l161.6-41.1c5.7-1.4,9.9-5,10.8-10.1L406.5,385.2L406.5,385.2z M395.4,364.8c2.5,4.1,4.4,8.6,5.5,13.4
		c1.5,1.4,2.9,3,4.1,4.6l181.9-34.3c5-1.2,8.9-4.4,10.2-8.7l-198.3,24.2C397.6,364.2,396.5,364.5,395.4,364.8L395.4,364.8z
		 M343.8,424.2c7.4,3.5,10.9,4.4,15.4,4.4c22.2,0,40.2-18.3,40.2-40.8c0-8.1-2.3-15.6-6.3-22c-5.2,2.6-8.3,7.7-8.3,14.2
		c0,2.3,0.6,4.6,0.9,6.9c0.4,2.8,0.6,6.4-0.1,11.3c-3.8,23.8-32.1,32.2-48.6,17.4l0,24.4c7.2-1.6,13.8,0.5,19.7,6.2
		c5.9,6.1,15.1,10,25.5,10c18,0,32.1-11.7,32.1-25.7c0-1.3-0.1-2.6-0.4-3.9c-6.2,11.5-20.1,19.9-35.9,20.8
		c-15.1,0.9-24.9-4.7-34.8-13.1c-1-0.5-2-1-2.9-1.5l1.2-2.2c7,3.9,15.6,6,25,5.6c23.5-0.9,42-17,42-35.4c0-6.8-2.5-13.1-6.9-18.2
		c0.2,1.7,0.3,3.4,0.3,5.1c0,23.9-19.1,43.3-42.7,43.3c-5,0-8.9-1-16.5-4.6L343.8,424.2L343.8,424.2z"/>
	<path class="st1" d="M275.1,346.5c0-3.3-0.3-5.3-0.8-6.5c-2.6-10.2-11.3-17.6-21.5-17.6c-8.3,0-15.5,4.9-19.4,12.1
		c-2.1-0.6-4.4-0.9-6.7-1L2.3,325.2c0,6.3,4.5,11.9,10.4,13.2l-0.6,0c0.9,5.8,5.6,10,11.6,11.4l1.2,0.2c-1.6-0.2-2.4-0.3-2.4-0.3
		c0.2,6.3,4.9,10.7,11,12.5c-0.2,0-0.3,0-0.3,0c0.1,5.9,4.3,10.8,10.1,13L196.2,424c-0.6,2.1-1,4.2-1,6.5c0,14.9,15,26.9,33.4,26.9
		c10.7,0,20.3-4.1,26.4-10.4c6.1-5.9,12.8-7.7,20.1-5.5v-32.4l0-0.7c-0.6-0.2-1.7,0-3.5,0.9c-2.7,1.3-5.7,2.1-8.9,2.3
		c-2.6,0.1-5.1-0.2-7.5-0.8c-2.8-3.3-4.5-8-4.5-13.3c0-14.8,7-16.8,14.2-25.5c7.4-9,10.1-14.4,10.2-25.2L275.1,346.5L275.1,346.5z"
		/>
	<path d="M262.8,412.9c-13.5,0.7-25.1-9.7-25.8-23.2c-0.8-15.6,13.4-20.3,12.6-34.3c-0.6-12-10.8-20.3-23.1-20.7l-223-8.2
		c0.6,5.6,5,10.3,10.5,10.9l198.1,24.2c9.8,1.3,16.3,8.5,16.3,18.4c0,2.4-0.6,4.8-0.9,7.2c-0.4,2.6-0.6,5.9,0.1,10.6
		c3.5,21.8,29.3,29.4,44.5,15.8c0,0,0.2-0.1,0.4-0.4c0.3-0.3,0.7-0.8,1.2-1.5l0-1.9C269.7,411.1,267.6,412.6,262.8,412.9
		L262.8,412.9z M235.2,333.7c9.4,3.2,16.5,11,17,21.5c0.8,15.1-13.4,19.7-12.6,34.3c0.4,8.3,5.5,15.4,12.5,18.7
		c-1.6-3.1-2.6-6.8-2.6-10.7c0-15.3,6.6-16.8,14.5-26.3c7.3-8.8,9.8-14,9.9-24.4l0-0.3c0-1.5,0-4.5-0.8-6.1
		c-2.4-9.3-10.3-16.8-20.4-16.8C245.4,323.6,239,327.6,235.2,333.7L235.2,333.7z M194.7,424.8L42.8,376.4
		c-5.9-2.2-10.4-7.1-10.9-13.3c-5.7-2-10.2-6.4-10.7-12.6c-5.1-1.9-9.2-5.9-10.3-11.2c-5.8-2-9.9-7.7-9.9-14.1v-1.3l225.6,8.3
		c2.1,0.1,4.1,0.4,6,0.8c4.2-7.1,11.6-11.9,20-11.9c10.9,0,19.9,7.9,22.7,18.5c0.6,1.5,0.9,3.7,0.9,7l0,0.3
		c-0.1,14.4-6.2,22.3-15.8,31.7c-6.1,6-8.6,9.7-8.6,19.1c0,4.8,1.5,9.1,4,12.2c2.1,0.6,4.4,0.8,6.7,0.7c3-0.2,5.8-0.9,8.4-2.1
		c2.1-1,3.1-1.4,5.3-0.7l0,5l0,30.7c-8.2-2.5-14.1-1.5-20.5,4.7c-6.4,6.6-16.2,10.8-27.3,10.8c-18.9,0-34.7-12.4-34.7-28.2
		C194,428.6,194.2,426.7,194.7,424.8L194.7,424.8z M34.5,363.8c0.7,4.6,4.2,8.4,9.1,10.2L195,422.3c-1-2.8-1.5-5.8-1.5-8.8
		c0-3.1,0.6-6.1,1.6-8.9L34.5,363.8L34.5,363.8z M200.1,396.4c0.6-4,2.1-7.8,4.2-11.2l-180.4-34c0.8,5.1,5.1,8.7,10.8,10.1
		l161.6,41.1C197.1,400.2,198.5,398.2,200.1,396.4L200.1,396.4z M260,437.1c-4.9,1.3-10.3,1.9-15.8,1.7c-24.3-1-44.4-17.7-44.5-37.8
		c-2.4,3.7-3.7,7.9-3.7,12.5c0,3.1,0.6,6.1,1.8,9l0.3,0.1l-0.1,0.3l0.2,0.4c5.1,11.6,18.6,20.6,34.9,21.6
		C244.2,445.6,252.3,442.5,260,437.1L260,437.1z M209.9,378.3c1.1-4.8,2.9-9.4,5.5-13.4c-1.1-0.4-2.2-0.6-3.4-0.8L13.8,339.9
		c1.2,4.3,5.1,7.5,10.1,8.7l181.9,34.3C207,381.3,208.4,379.7,209.9,378.3L209.9,378.3z M268,426.5c-7.6,3.6-11.4,4.6-16.5,4.6
		c-23.6,0-42.7-19.4-42.7-43.3c0-1.7,0.1-3.4,0.3-5.1c-4.4,5.1-6.9,11.4-6.9,18.2c0,18.4,18.6,34.5,42,35.4c9.4,0.4,18.1-1.8,25-5.6
		l1.2,2.2c-0.9,0.5-1.9,1-2.9,1.5c-9.9,8.4-19.7,14-34.8,13.1c-15.9-1-29.8-9.4-35.9-20.8c-0.3,1.3-0.4,2.6-0.4,3.9
		c0,13.9,14.1,25.7,32.1,25.7c10.4,0,19.6-4,25.5-10c5.9-5.7,12.5-7.9,19.7-6.2l0-24.4c-16.6,14.8-44.9,6.5-48.6-17.4
		c-0.8-5.5-0.3-9.7,0.5-15.1c0.2-1.1,0.3-2.1,0.3-3.1c0-6.5-3.1-11.6-8.3-14.2c-4,6.3-6.3,13.9-6.3,22c0,22.6,18,40.8,40.2,40.8
		c4.5,0,8-0.8,15.4-4.4L268,426.5L268,426.5z"/>
	<path d="M384.6,465.1l4.6-8.3l3.2-0.9l-6.7,12.3l-10.5-4.3c-1.6,2.3-3.3,4.6-5.1,6.8l6.8,9.1L366,490.3l-8.8-7.1
		c-2.2,1.7-4.5,3.3-6.8,4.8l3.7,10.8l-13.6,6.6l-6.1-9.4c-2.6,1-5.2,1.8-7.9,2.5l0.2,11.5l-15,2.1l-2.9-10.9c-1.5,0.1-3,0.1-4.5,0.1
		c-1.3,0-2.7,0-4-0.1l-3.2,11.1l-14.9-2.4l0.4-11.4c-2.8-0.7-5.4-1.6-8.1-2.5l-6.2,9.6l-13.6-6.6l3.8-10.9c-2.3-1.5-4.6-3.1-6.8-4.8
		l-8.9,7.2l-10.9-10.5l6.9-9.1c-1.8-2.1-3.5-4.3-5.1-6.6l-10.8,4.2l-6.6-12.4l2.7,0l5,9.2l10.6-4.1c2.3,3.4,4.7,6.5,7.3,9.6
		l-6.8,8.9l7.7,7.4l8.7-7.1c3.2,2.5,6.4,4.8,9.9,6.9l-3.7,10.7l9.6,4.7l6.1-9.4c3.8,1.5,7.7,2.7,11.7,3.7l-0.4,11.2l10.5,1.7
		l3.1-10.9c1.9,0.1,3.9,0.2,5.8,0.2c2.1,0,4.3-0.1,6.4-0.2l2.8,10.7l10.6-1.5l-0.2-11.3c3.9-1,7.7-2.2,11.5-3.7l6,9.3l9.6-4.7
		l-3.7-10.6c3.5-2.1,6.7-4.4,9.8-7l8.6,7l7.7-7.4l-6.7-8.9c2.7-3.1,5.1-6.3,7.4-9.8L384.6,465.1L384.6,465.1z"/>
	<path d="M338.8,472.1c-10,6.1-21.8,9.7-34.4,9.7c-12.6,0-24.4-3.5-34.4-9.7l1.3-2.1c9.6,5.9,21,9.3,33.1,9.3
		c12.1,0,23.4-3.4,33.1-9.3L338.8,472.1L338.8,472.1z"/>
	<path d="M243.1,465.8c-2.4-3-4.6-6.1-6.6-9.4l1.9-1.1c1.9,3.2,4.1,6.3,6.4,9.2L243.1,465.8L243.1,465.8z"/>
	<path d="M353.4,471.8c-13.1,11.5-30.2,18.4-49,18.4c-18.7,0-35.9-6.9-49-18.4l1.7-1.9c12.6,11,29.2,17.7,47.3,17.7
		c18.1,0,34.7-6.7,47.3-17.8L353.4,471.8L353.4,471.8z"/>
	<path d="M245.6,461.1c-1.4-1.8-2.7-3.7-4-5.7l1.8-1.2c1.2,1.9,2.5,3.7,3.8,5.5L245.6,461.1L245.6,461.1z"/>
	<path d="M360.5,471.7c-14.3,14.4-34.2,23.3-56.1,23.3c-21.8,0-41.6-8.8-55.9-23.1l1.8-1.8c13.9,13.8,33,22.4,54.2,22.4
		c21.2,0,40.4-8.6,54.3-22.5L360.5,471.7L360.5,471.7z"/>
	<polygon points="238.7,472.2 304.6,358 370.5,472.2 238.7,472.2 	"/>
	<polygon class="st2" points="243.1,469.6 304.6,363.1 350.1,441.8 359.9,441.8 359.9,458.7 366.1,469.6 243.1,469.6 	"/>
	<polygon class="st3" points="330.3,462.4 310.4,462.4 332.2,371.1 357.4,371.1 379.1,462.4 359.3,462.4 354.8,443.7 334.7,443.7 
		330.3,462.4 	"/>
	<polygon class="st1" points="339,425.9 350.6,425.9 344.8,401.5 339,425.9 	"/>
	<path d="M349,424.7l-4.2-17.7l-4.2,17.7H349L349,424.7z M352.2,427.2h-14.8l7.4-31L352.2,427.2L352.2,427.2z"/>
	<path d="M308.9,463.7l22.4-93.9h27.1l22.4,93.9h-22.4l-4.5-18.7h-18.1l-4.5,18.7H308.9L308.9,463.7z M312,461.2h17.3l4.5-18.7h22.1
		l4.5,18.7h17.3l-21.2-88.8h-23.2L312,461.2L312,461.2z"/>
	<polygon class="st3" points="260.8,362.3 260.8,344.5 348.4,344.5 348.4,362.3 314.5,362.3 314.5,426 294.7,426 294.7,362.3 
		260.8,362.3 	"/>
	<path d="M259.6,343.2h90.1v20.3h-33.9v63.8h-22.3v-63.8h-33.9V343.2L259.6,343.2z M262.1,345.7V361H296v63.8h17.2V361h33.9v-15.3
		H262.1L262.1,345.7z"/>
	<polygon class="st3" points="261,371.2 261,462.3 280.7,462.3 280.7,371.2 261,371.2 	"/>
	<path d="M262.2,461.1h17.2v-88.6h-17.2V461.1L262.2,461.1z M259.7,463.6v-93.6h22.2v93.6H259.7L259.7,463.6z"/>
</g>
</svg>
